<svg width="506" height="442" viewBox="0 0 506 442" fill="none" xmlns="http://www.w3.org/2000/svg">
<path d="M252.7 19.4L19.4 252.7C-5.60001 277.7 -5.60001 318.2 19.4 343.2L99.4 423.2C111.4 435.2 127.7 441.9 144.7 441.9H250H259.4H474C491.7 441.9 506 427.6 506 409.9C506 392.2 491.7 377.9 474 377.9H349.9L480.6 247.3C505.6 222.3 505.6 181.8 480.6 156.8L343.3 19.4C318.3 -5.59998 277.8 -5.59998 252.8 19.4H252.7ZM259.4 378H250H144.6L64.6 298L189.3 173.3L326.7 310.7L259.4 378Z" fill="#F79824"/>
</svg>
