<svg width="56" height="59" viewBox="0 0 56 59" fill="none" xmlns="http://www.w3.org/2000/svg">
<path d="M52.2491 25.0854L55.0959 28.0087C56.3014 29.2465 56.3014 31.2481 55.0959 32.4727L30.18 58.0716C28.9746 59.3095 27.0254 59.3095 25.8328 58.0716L0.904053 32.4727C-0.30135 31.2349 -0.30135 29.2333 0.904053 28.0087L3.75086 25.0854C4.96909 23.8344 6.95673 23.8607 8.14931 25.138L22.8706 41.0057L22.8706 3.16036C22.8706 1.40899 24.2427 0 25.9482 0L30.0518 0C31.7573 0 33.1294 1.40899 33.1294 3.16036L33.1294 41.0057L47.8507 25.138C49.0433 23.8476 51.0309 23.8212 52.2491 25.0854Z" fill="#F79824"/>
</svg>
