<svg width="59" height="56" viewBox="0 0 59 56" fill="none" xmlns="http://www.w3.org/2000/svg">
<path d="M33.9146 52.2491L30.9913 55.0959C29.7535 56.3014 27.7519 56.3014 26.5273 55.0959L0.928398 30.18C-0.309502 28.9746 -0.309502 27.0254 0.928398 25.8328L26.5273 0.904099C27.7651 -0.301401 29.7667 -0.301401 30.9913 0.904099L33.9146 3.7509C35.1656 4.9691 35.1393 6.9567 33.862 8.1493L17.9943 22.8706H55.8396C57.591 22.8706 59 24.2427 59 25.9482V30.0518C59 31.7573 57.591 33.1294 55.8396 33.1294H17.9943L33.862 47.8507C35.1524 49.0433 35.1788 51.0309 33.9146 52.2491Z" fill="#F79824"/>
</svg>
