<svg width="49" height="36" viewBox="0 0 49 36" fill="none" xmlns="http://www.w3.org/2000/svg">
<path d="M3.60271 0.715327C3.84278 0.221722 4.37092 -0.0614937 4.90707 0.0113332L24.4966 2.48745L44.0861 0.0113332C44.6223 -0.0534018 45.1504 0.229814 45.3905 0.715327L48.7274 7.46396C49.4476 8.91241 48.6794 10.6683 47.143 11.1134L34.0673 14.8923C32.955 15.216 31.7626 14.7386 31.1705 13.7352L24.4966 2.48745L17.8227 13.7352C17.2305 14.7386 16.0382 15.216 14.9259 14.8923L1.85822 11.1134C0.313781 10.6683 -0.446433 8.91241 0.27377 7.46396L3.60271 0.715327ZM24.5846 7.66626L28.9779 15.0622C30.1702 17.069 32.5469 18.0239 34.7795 17.3765L44.9824 14.4311V27.9445C44.9824 29.7247 43.782 31.2784 42.0695 31.7153L25.7369 35.8422C24.9207 36.0526 24.0645 36.0526 23.2562 35.8422L6.92364 31.7153C5.21116 31.2703 4.01082 29.7166 4.01082 27.9364V14.423L14.2217 17.3765C16.4463 18.0239 18.831 17.069 20.0233 15.0622L24.4086 7.66626H24.5846Z" fill="#F79824"/>
</svg>
