<svg width="36" height="36" viewBox="0 0 36 36" fill="none" xmlns="http://www.w3.org/2000/svg">
<path d="M11.7441 21.7505C8.92319 21.9319 6.36316 23.0063 4.91053 26.8341C4.7453 27.2707 4.34804 27.5358 3.88469 27.5358C3.10353 27.5358 0.688346 25.5902 0 25.1205C0.000703111 30.9108 2.6676 36 9.00053 36C14.3343 36 18.0004 32.9224 18.0004 27.5491C18.0004 27.3305 17.9546 27.1216 17.9321 26.9072L11.7441 21.7505ZM32.1955 0C31.1296 0 30.1304 0.471797 29.3683 1.15664C14.996 13.9957 13.5004 14.2973 13.5004 18.0766C13.5004 19.0399 13.729 19.9582 14.1143 20.7977L18.6015 24.537C19.1085 24.6635 19.6309 24.75 20.1758 24.75C24.5428 24.75 27.074 21.5529 35.0227 6.71766C35.5416 5.70867 36 4.61883 36 3.48398C36 1.45125 34.1719 0 32.1955 0Z" fill="#F79824"/>
</svg>
