<svg width="35" height="35" viewBox="0 0 35 35" fill="none" xmlns="http://www.w3.org/2000/svg">
<path d="M27.502 1.87905L17.8934 11.4876L8.28481 1.87905C7.10575 0.699995 5.19338 0.699995 4.01432 1.87905L1.87908 4.01429C0.700025 5.19335 0.700025 7.10572 1.87908 8.28478L11.4877 17.8934L1.87908 27.502C0.700025 28.681 0.700025 30.5934 1.87908 31.7725L4.01432 33.9077C5.19338 35.0867 7.10575 35.0867 8.28481 33.9077L17.8934 24.2991L27.502 33.9077C28.681 35.0867 30.5934 35.0867 31.7725 33.9077L33.9077 31.7725C35.0868 30.5934 35.0868 28.681 33.9077 27.502L24.2991 17.8934L33.9077 8.28478C35.0868 7.10572 35.0868 5.19335 33.9077 4.01429L31.7725 1.87905C30.5934 0.699995 28.681 0.699995 27.502 1.87905Z" fill="#F5F4EB"/>
</svg>
