<svg width="62" height="62" viewBox="0 0 62 62" fill="none" xmlns="http://www.w3.org/2000/svg">
<path d="M0 20.4821V3.32143C0 1.4808 1.4808 0 3.32143 0H20.4821C21.3955 0 22.1429 0.747321 22.1429 1.66071V7.19643C22.1429 8.10982 21.3955 8.85714 20.4821 8.85714H8.85714V20.4821C8.85714 21.3955 8.10982 22.1429 7.19643 22.1429H1.66071C0.747321 22.1429 0 21.3955 0 20.4821ZM39.8571 1.66071V7.19643C39.8571 8.10982 40.6045 8.85714 41.5179 8.85714H53.1429V20.4821C53.1429 21.3955 53.8902 22.1429 54.8036 22.1429H60.3393C61.2527 22.1429 62 21.3955 62 20.4821V3.32143C62 1.4808 60.5192 0 58.6786 0H41.5179C40.6045 0 39.8571 0.747321 39.8571 1.66071ZM60.3393 39.8571H54.8036C53.8902 39.8571 53.1429 40.6045 53.1429 41.5179V53.1429H41.5179C40.6045 53.1429 39.8571 53.8902 39.8571 54.8036V60.3393C39.8571 61.2527 40.6045 62 41.5179 62H58.6786C60.5192 62 62 60.5192 62 58.6786V41.5179C62 40.6045 61.2527 39.8571 60.3393 39.8571ZM22.1429 60.3393V54.8036C22.1429 53.8902 21.3955 53.1429 20.4821 53.1429H8.85714V41.5179C8.85714 40.6045 8.10982 39.8571 7.19643 39.8571H1.66071C0.747321 39.8571 0 40.6045 0 41.5179V58.6786C0 60.5192 1.4808 62 3.32143 62H20.4821C21.3955 62 22.1429 61.2527 22.1429 60.3393Z" fill="#F79824"/>
</svg>
