<svg width="68" height="53" viewBox="0 0 68 53" fill="none" xmlns="http://www.w3.org/2000/svg">
<path d="M32.6436 13.6162L11.1785 31.4084V50.6113C11.1785 51.1085 11.3747 51.5853 11.7241 51.9369C12.0734 52.2885 12.5472 52.486 13.0412 52.486L26.0877 52.452C26.5801 52.4495 27.0516 52.2509 27.3989 51.8996C27.7462 51.5483 27.9412 51.0729 27.9412 50.5773V39.363C27.9412 38.8658 28.1374 38.389 28.4868 38.0374C28.8361 37.6858 29.3099 37.4883 29.804 37.4883H37.2551C37.7492 37.4883 38.223 37.6858 38.5723 38.0374C38.9216 38.389 39.1179 38.8658 39.1179 39.363V50.5691C39.1171 50.8158 39.1647 51.0602 39.258 51.2883C39.3513 51.5164 39.4884 51.7238 39.6614 51.8985C39.8345 52.0732 40.0401 52.2118 40.2665 52.3064C40.4929 52.401 40.7356 52.4497 40.9807 52.4497L54.0225 52.486C54.5165 52.486 54.9904 52.2885 55.3397 51.9369C55.689 51.5853 55.8853 51.1085 55.8853 50.6113V31.3955L34.4248 13.6162C34.1725 13.4116 33.8583 13.3 33.5342 13.3C33.2101 13.3 32.8959 13.4116 32.6436 13.6162V13.6162ZM66.5497 25.7093L56.8167 17.6351V1.40603C56.8167 1.03313 56.6695 0.675499 56.4075 0.411817C56.1455 0.148135 55.7901 0 55.4196 0H48.8998C48.5293 0 48.174 0.148135 47.912 0.411817C47.65 0.675499 47.5028 1.03313 47.5028 1.40603V9.91369L37.0793 1.283C36.079 0.454592 34.8238 0.00165601 33.5284 0.00165601C32.2329 0.00165601 30.9777 0.454592 29.9774 1.283L0.507025 25.7093C0.365556 25.827 0.248512 25.9715 0.162581 26.1348C0.0766511 26.298 0.0235185 26.4766 0.00621955 26.6605C-0.0110794 26.8444 0.00779419 27.0299 0.0617621 27.2065C0.11573 27.383 0.203734 27.5471 0.320747 27.6894L3.28956 31.3217C3.40625 31.4645 3.54979 31.5827 3.71194 31.6696C3.8741 31.7565 4.0517 31.8104 4.23456 31.8281C4.41743 31.8459 4.60198 31.8272 4.77765 31.773C4.95331 31.7189 5.11664 31.6304 5.25829 31.5127L32.6436 8.8123C32.8959 8.60764 33.2101 8.49603 33.5342 8.49603C33.8583 8.49603 34.1725 8.60764 34.4248 8.8123L61.8113 31.5127C61.9527 31.6304 62.1158 31.719 62.2912 31.7733C62.4666 31.8276 62.6509 31.8466 62.8337 31.8292C63.0164 31.8118 63.1939 31.7583 63.3561 31.6719C63.5183 31.5854 63.6619 31.4676 63.7788 31.3252L66.7477 27.693C66.8645 27.5498 66.9522 27.3849 67.0055 27.2076C67.0588 27.0302 67.0768 26.8441 67.0584 26.6597C67.04 26.4754 66.9856 26.2965 66.8983 26.1334C66.811 25.9703 66.6926 25.8262 66.5497 25.7093V25.7093Z" fill="#F5F4EB"/>
</svg>
