<svg width="46" height="36" viewBox="0 0 46 36" fill="none" xmlns="http://www.w3.org/2000/svg">
<path d="M22.4015 9.82833L7.95386 21.8038V34.7288C7.95386 35.0635 8.08596 35.3844 8.32109 35.6211C8.55622 35.8577 8.87513 35.9907 9.20766 35.9907L17.9889 35.9678C18.3204 35.9661 18.6377 35.8324 18.8715 35.596C19.1052 35.3595 19.2365 35.0395 19.2365 34.706V27.1579C19.2365 26.8232 19.3686 26.5023 19.6037 26.2656C19.8388 26.029 20.1577 25.8961 20.4903 25.8961H25.5055C25.838 25.8961 26.1569 26.029 26.392 26.2656C26.6272 26.5023 26.7593 26.8232 26.7593 27.1579V34.7004C26.7587 34.8665 26.7908 35.031 26.8536 35.1845C26.9163 35.3381 27.0086 35.4776 27.1251 35.5952C27.2416 35.7128 27.38 35.8061 27.5323 35.8698C27.6847 35.9334 27.8481 35.9662 28.0131 35.9662L36.7912 35.9907C37.1237 35.9907 37.4426 35.8577 37.6778 35.6211C37.9129 35.3844 38.045 35.0635 38.045 34.7288V21.7951L23.6005 9.82833C23.4307 9.69057 23.2191 9.61545 23.001 9.61545C22.7829 9.61545 22.5713 9.69057 22.4015 9.82833ZM45.223 17.9679L38.6719 12.5334V1.60992C38.6719 1.35893 38.5728 1.11821 38.3965 0.940736C38.2201 0.763258 37.9809 0.663551 37.7316 0.663551H33.3433C33.0939 0.663551 32.8547 0.763258 32.6783 0.940736C32.502 1.11821 32.4029 1.35893 32.4029 1.60992V7.33623L25.3871 1.52711C24.7139 0.969527 23.869 0.664666 22.9971 0.664666C22.1252 0.664666 21.2803 0.969527 20.607 1.52711L0.771168 17.9679C0.675948 18.0471 0.597169 18.1444 0.539331 18.2543C0.481493 18.3641 0.445731 18.4844 0.434087 18.6081C0.422444 18.7319 0.435147 18.8568 0.471472 18.9756C0.507796 19.0944 0.56703 19.2049 0.645788 19.3007L2.64403 21.7455C2.72257 21.8416 2.81918 21.9212 2.92833 21.9797C3.03747 22.0381 3.157 22.0744 3.28009 22.0863C3.40317 22.0983 3.52739 22.0857 3.64562 22.0492C3.76386 22.0128 3.8738 21.9533 3.96914 21.874L22.4015 6.59491C22.5713 6.45715 22.7829 6.38203 23.001 6.38203C23.2191 6.38203 23.4307 6.45715 23.6005 6.59491L42.0336 21.874C42.1288 21.9533 42.2386 22.0129 42.3567 22.0494C42.4747 22.086 42.5988 22.0988 42.7218 22.0871C42.8448 22.0753 42.9643 22.0394 43.0734 21.9811C43.1826 21.9229 43.2793 21.8437 43.358 21.7478L45.3562 19.303C45.4349 19.2067 45.4939 19.0957 45.5298 18.9763C45.5657 18.857 45.5778 18.7317 45.5654 18.6076C45.553 18.4835 45.5164 18.3631 45.4576 18.2533C45.3989 18.1436 45.3191 18.0465 45.223 17.9679Z" fill="#F79824"/>
</svg>
