<svg width="28" height="25" viewBox="0 0 28 25" fill="none" xmlns="http://www.w3.org/2000/svg">
<path d="M2.60312 14.4282L12.4852 23.654C12.8953 24.0368 13.4367 24.25 14 24.25C14.5633 24.25 15.1047 24.0368 15.5148 23.654L25.3969 14.4282C27.0594 12.8805 28 10.7094 28 8.43989V8.12271C28 4.30005 25.2383 1.04067 21.4703 0.411767C18.9766 -0.00385757 16.4391 0.810986 14.6562 2.5938L14 3.25005L13.3438 2.5938C11.5609 0.810986 9.02344 -0.00385757 6.52969 0.411767C2.76172 1.04067 0 4.30005 0 8.12271V8.43989C0 10.7094 0.940625 12.8805 2.60312 14.4282Z" fill="#F5F4EB"/>
</svg>
