<svg width="59" height="56" viewBox="0 0 59 56" fill="none" xmlns="http://www.w3.org/2000/svg">
<path d="M25.0854 3.75086L28.0087 0.904053C29.2465 -0.301351 31.2481 -0.301351 32.4727 0.904053L58.0716 25.82C59.3095 27.0254 59.3095 28.9746 58.0716 30.1672L32.4727 55.0959C31.2349 56.3014 29.2333 56.3014 28.0087 55.0959L25.0854 52.2491C23.8344 51.0309 23.8607 49.0433 25.138 47.8507L41.0057 33.1294H3.16036C1.40899 33.1294 0 31.7573 0 30.0518V25.9482C0 24.2427 1.40899 22.8706 3.16036 22.8706H41.0057L25.138 8.1493C23.8476 6.95672 23.8212 4.96909 25.0854 3.75086Z" fill="#F5F4EB"/>
</svg>
