<svg width="36" height="35" viewBox="0 0 36 35" fill="none" xmlns="http://www.w3.org/2000/svg">
<path d="M15.3063 2.34429L17.0901 0.565033C17.8453 -0.188344 19.0666 -0.188344 19.8139 0.565033L35.4335 16.1375C36.1888 16.8909 36.1888 18.1091 35.4335 18.8545L19.8139 34.435C19.0586 35.1883 17.8373 35.1883 17.0901 34.435L15.3063 32.6557C14.543 31.8943 14.5591 30.6521 15.3385 29.9067L25.0204 20.7059H1.92836C0.859725 20.7059 0 19.8483 0 18.7823V16.2177C0 15.1517 0.859725 14.2941 1.92836 14.2941H25.0204L15.3385 5.09331C14.5511 4.34795 14.535 3.10568 15.3063 2.34429Z" fill="#F79824"/>
</svg>
