<svg width="261" height="261" viewBox="0 0 261 261" fill="none" xmlns="http://www.w3.org/2000/svg">
<path d="M97.875 53.4234C97.875 48.7336 94.9184 44.6045 91.1461 41.8008C85.2328 37.3658 81.5625 31.2486 81.5625 24.4688C81.5625 10.96 96.1928 0 114.188 0C132.182 0 146.812 10.96 146.812 24.4688C146.812 31.2486 143.142 37.3658 137.229 41.8008C133.457 44.6045 130.5 48.7336 130.5 53.4234C130.5 59.9484 135.802 65.25 142.327 65.25H171.281C184.79 65.25 195.75 76.21 195.75 89.7188V118.673C195.75 125.198 201.052 130.5 207.577 130.5C212.266 130.5 216.396 127.543 219.199 123.771C223.634 117.858 229.751 114.188 236.531 114.188C250.04 114.188 261 128.818 261 146.812C261 164.807 250.04 179.438 236.531 179.438C229.751 179.438 223.634 175.767 219.199 169.854C216.396 166.082 212.266 163.125 207.577 163.125C201.052 163.125 195.75 168.427 195.75 174.952V236.531C195.75 250.04 184.79 261 171.281 261H142.327C135.802 261 130.5 255.698 130.5 249.173C130.5 244.484 133.457 240.354 137.229 237.551C143.142 233.116 146.812 226.999 146.812 220.219C146.812 206.71 132.182 195.75 114.188 195.75C96.1928 195.75 81.5625 206.71 81.5625 220.219C81.5625 226.999 85.2328 233.116 91.1461 237.551C94.9184 240.354 97.875 244.484 97.875 249.173C97.875 255.698 92.5734 261 86.0484 261H24.4688C10.96 261 0 250.04 0 236.531V174.952C0 168.427 5.30156 163.125 11.8266 163.125C16.5164 163.125 20.6455 166.082 23.4492 169.854C27.8842 175.767 34.0014 179.438 40.7812 179.438C54.29 179.438 65.25 164.807 65.25 146.812C65.25 128.818 54.29 114.188 40.7812 114.188C34.0014 114.188 27.8842 117.858 23.4492 123.771C20.6455 127.543 16.5164 130.5 11.8266 130.5C5.30156 130.5 0 125.198 0 118.673V89.7188C0 76.21 10.96 65.25 24.4688 65.25H86.0484C92.5734 65.25 97.875 59.9484 97.875 53.4234Z" fill="#F79824"/>
</svg>
