<svg width="41" height="39" viewBox="0 0 41 39" fill="none" xmlns="http://www.w3.org/2000/svg">
<path d="M38.1284 22.2847L38.8794 22.2847C40.0546 22.2847 41 23.2161 41 24.3737L41 35.515C41 36.3593 40.4875 37.1253 39.6923 37.4473C38.8971 37.7694 37.987 37.5953 37.3774 36.9947L33.7017 33.3738C25.9616 40.9029 13.4944 40.8767 5.79845 33.2868C-1.93281 25.6706 -1.93281 13.3282 5.79845 5.71208C13.5297 -1.90403 26.0588 -1.90403 33.79 5.71208C34.8945 6.8001 34.8945 8.56703 33.79 9.65505C32.6856 10.7431 30.8919 10.7431 29.7875 9.65505C24.2651 4.21497 15.3145 4.21497 9.7922 9.65505C4.26987 15.0951 4.26987 23.9124 9.7922 29.3525C15.288 34.7665 24.1679 34.7926 29.6991 29.4395L26.0676 25.8534C25.4579 25.2528 25.2812 24.3563 25.6082 23.5729C25.9351 22.7896 26.7126 22.2847 27.5697 22.2847L38.1284 22.2847Z" fill="#F5F4EB"/>
</svg>
